<svg width="500" height="500" viewBox="0 0 500 500" fill="none" xmlns="http://www.w3.org/2000/svg">
<g id="hangman0">
<g id="HANGMAN" filter="url(#filter0_d_2_5)">
<path d="M61.1094 244.094V251.453H24.1719V244.094H61.1094ZM25.5781 214.75V283H16.5312V214.75H25.5781ZM68.9844 214.75V283H59.9844V214.75H68.9844ZM111.172 220.797L88.5781 283H79.3438L105.359 214.75H111.312L111.172 220.797ZM130.109 283L107.469 220.797L107.328 214.75H113.281L139.391 283H130.109ZM128.938 257.734V265.141H90.5938V257.734H128.938ZM201.031 214.75V283H191.938L157.578 230.359V283H148.531V214.75H157.578L192.078 267.531V214.75H201.031ZM267.5 249.016V274C266.656 275.25 265.312 276.656 263.469 278.219C261.625 279.75 259.078 281.094 255.828 282.25C252.609 283.375 248.453 283.938 243.359 283.938C239.203 283.938 235.375 283.219 231.875 281.781C228.406 280.312 225.391 278.188 222.828 275.406C220.297 272.594 218.328 269.188 216.922 265.188C215.547 261.156 214.859 256.594 214.859 251.5V246.203C214.859 241.109 215.453 236.562 216.641 232.562C217.859 228.562 219.641 225.172 221.984 222.391C224.328 219.578 227.203 217.453 230.609 216.016C234.016 214.547 237.922 213.812 242.328 213.812C247.547 213.812 251.906 214.719 255.406 216.531C258.938 218.312 261.688 220.781 263.656 223.938C265.656 227.094 266.938 230.688 267.5 234.719H258.453C258.047 232.25 257.234 230 256.016 227.969C254.828 225.938 253.125 224.312 250.906 223.094C248.688 221.844 245.828 221.219 242.328 221.219C239.172 221.219 236.438 221.797 234.125 222.953C231.812 224.109 229.906 225.766 228.406 227.922C226.906 230.078 225.781 232.688 225.031 235.75C224.312 238.812 223.953 242.266 223.953 246.109V251.5C223.953 255.438 224.406 258.953 225.312 262.047C226.25 265.141 227.578 267.781 229.297 269.969C231.016 272.125 233.062 273.766 235.438 274.891C237.844 276.016 240.5 276.578 243.406 276.578C246.625 276.578 249.234 276.312 251.234 275.781C253.234 275.219 254.797 274.562 255.922 273.812C257.047 273.031 257.906 272.297 258.5 271.609V256.328H242.703V249.016H267.5ZM285.359 214.75H294.125L316.484 270.391L338.797 214.75H347.609L319.859 283H313.016L285.359 214.75ZM282.5 214.75H290.234L291.5 256.375V283H282.5V214.75ZM342.688 214.75H350.422V283H341.422V256.375L342.688 214.75ZM392.422 220.797L369.828 283H360.594L386.609 214.75H392.562L392.422 220.797ZM411.359 283L388.719 220.797L388.578 214.75H394.531L420.641 283H411.359ZM410.188 257.734V265.141H371.844V257.734H410.188ZM482.281 214.75V283H473.188L438.828 230.359V283H429.781V214.75H438.828L473.328 267.531V214.75H482.281Z" fill="white"/>
</g>
</g>
<defs>
<filter id="filter0_d_2_5" x="12.5312" y="213.812" width="473.75" height="78.125" filterUnits="userSpaceOnUse" color-interpolation-filters="sRGB">
<feFlood flood-opacity="0" result="BackgroundImageFix"/>
<feColorMatrix in="SourceAlpha" type="matrix" values="0 0 0 0 0 0 0 0 0 0 0 0 0 0 0 0 0 0 127 0" result="hardAlpha"/>
<feOffset dy="4"/>
<feGaussianBlur stdDeviation="2"/>
<feComposite in2="hardAlpha" operator="out"/>
<feColorMatrix type="matrix" values="0 0 0 0 0 0 0 0 0 0 0 0 0 0 0 0 0 0 0.25 0"/>
<feBlend mode="normal" in2="BackgroundImageFix" result="effect1_dropShadow_2_5"/>
<feBlend mode="normal" in="SourceGraphic" in2="effect1_dropShadow_2_5" result="shape"/>
</filter>
</defs>
</svg>
