<svg width="500" height="500" viewBox="0 0 500 500" fill="none" xmlns="http://www.w3.org/2000/svg">
<g id="hangman9">
<g id="head" filter="url(#filter0_d_10_61)">
<circle cx="250" cy="96" r="50" fill="white"/>
</g>
<line id="Line 1" x1="250.5" y1="146" x2="250.5" y2="377" stroke="white"/>
<line id="Line 2" x1="250.2" y1="226.458" x2="140.2" y2="274.458" stroke="white"/>
<line id="Line 3" y1="-0.5" x2="120.017" y2="-0.5" transform="matrix(0.916539 0.399944 0.399944 -0.916539 250 226)" stroke="white"/>
<line id="Line 4" x1="250.207" y1="377.458" x2="140.2" y2="425.451" stroke="white"/>
<line id="Line 5" y1="-0.5" x2="120.02" y2="-0.5" transform="matrix(0.916572 0.399869 0.399869 -0.916572 250 377)" stroke="white"/>
<circle id="Ellipse 1" cx="229.5" cy="77.5" r="8.5" fill="black"/>
<circle id="Ellipse 2" cx="269.5" cy="77.5" r="8.5" fill="black"/>
<path id="Ellipse 3" d="M270 111C270 116.304 267.893 121.391 264.142 125.142C260.391 128.893 255.304 131 250 131C244.696 131 239.609 128.893 235.858 125.142C232.107 121.391 230 116.304 230 111L250 111H270Z" fill="black"/>
</g>
<defs>
<filter id="filter0_d_10_61" x="196" y="46" width="108" height="108" filterUnits="userSpaceOnUse" color-interpolation-filters="sRGB">
<feFlood flood-opacity="0" result="BackgroundImageFix"/>
<feColorMatrix in="SourceAlpha" type="matrix" values="0 0 0 0 0 0 0 0 0 0 0 0 0 0 0 0 0 0 127 0" result="hardAlpha"/>
<feOffset dy="4"/>
<feGaussianBlur stdDeviation="2"/>
<feComposite in2="hardAlpha" operator="out"/>
<feColorMatrix type="matrix" values="0 0 0 0 0 0 0 0 0 0 0 0 0 0 0 0 0 0 0.25 0"/>
<feBlend mode="normal" in2="BackgroundImageFix" result="effect1_dropShadow_10_61"/>
<feBlend mode="normal" in="SourceGraphic" in2="effect1_dropShadow_10_61" result="shape"/>
</filter>
</defs>
</svg>
